<svg width="220" height="27" viewBox="0 0 220 27" fill="none" xmlns="http://www.w3.org/2000/svg">
<path d="M19.6929 26.2262V0.348145H24.3539V21.9326H33.6759V26.1102H19.6929V26.2262Z" fill="white"/>
<path d="M43.5806 14.8538C46.7268 14.5057 47.8921 14.1575 47.8921 12.6489C47.8921 11.4885 46.8433 10.5601 44.7459 10.5601C42.7649 10.5601 41.0171 11.3724 39.7353 12.9971L36.9387 10.6762C38.8031 8.12318 41.3666 6.84668 44.6293 6.84668C49.2904 6.84668 52.2035 9.05154 52.2035 12.881V21.1202C52.2035 22.3967 52.2035 22.5128 52.2035 22.5128V25.9941V26.4583H48.7077V24.3695C47.426 25.8781 45.3285 26.6904 42.2988 26.6904C38.2204 26.6904 35.4238 24.4856 35.4238 21.0042C35.4238 17.2908 37.9874 15.318 43.5806 14.8538ZM43.1145 22.977C46.1442 22.977 47.8921 21.5844 47.8921 19.2635V17.1747C47.659 17.4068 47.426 17.5228 46.9599 17.7549C46.1442 18.1031 45.5615 18.1031 43.8137 18.3352C41.2501 18.6833 39.9683 19.4956 39.9683 20.7721C39.8518 22.1647 41.017 22.977 43.1145 22.977Z" fill="white"/>
<path d="M55.2329 26.2262V0.348145H59.6609V10.212C60.2435 8.35527 62.574 7.07877 65.6037 7.07877C68.2838 7.07877 70.4977 8.00713 72.2456 9.86385C74.11 11.7206 74.9257 14.0415 74.9257 16.8266C74.9257 19.6117 73.9935 21.9326 72.2456 23.7893C70.4977 25.646 68.2838 26.5744 65.6037 26.5744C62.574 26.5744 60.2435 25.2979 59.6609 23.4411V26.1102H55.2329V26.2262ZM68.9829 20.8881C70.0316 19.8437 70.6143 18.4512 70.6143 16.8266C70.6143 15.2019 70.1482 13.8094 68.9829 12.765C67.9342 11.7206 66.6524 11.1404 65.021 11.1404C63.3897 11.1404 61.9914 11.7206 60.9427 12.765C59.8939 13.8094 59.3113 15.2019 59.3113 16.8266C59.3113 18.4512 59.8939 19.8437 60.9427 20.8881C62.1079 21.9326 63.3897 22.5128 65.021 22.5128C66.6524 22.5128 68.0507 22.0486 68.9829 20.8881Z" fill="white"/>
<path d="M77.0234 16.8266C77.0234 14.0415 78.0722 11.7206 80.0531 9.74781C82.034 7.89109 84.4811 6.84668 87.2777 6.84668C90.1908 6.84668 92.5213 7.77504 94.5023 9.74781C96.4832 11.6045 97.5319 14.0415 97.5319 16.8266C97.5319 19.6117 96.4832 21.9326 94.5023 23.9053C92.5213 25.7621 90.0743 26.8065 87.2777 26.8065C84.3646 26.8065 82.034 25.8781 80.0531 23.9053C78.0722 22.0486 77.0234 19.6117 77.0234 16.8266ZM91.4726 21.0042C92.6379 19.8437 93.104 18.4512 93.104 16.8266C93.104 15.2019 92.5213 13.8094 91.4726 12.6489C90.3074 11.4885 89.0256 10.9083 87.3942 10.9083C85.7629 10.9083 84.3646 11.4885 83.1993 12.6489C82.1506 13.8094 81.5679 15.0859 81.5679 16.8266C81.5679 18.4512 82.1506 19.8437 83.1993 21.0042C84.3646 22.1647 85.6463 22.6288 87.3942 22.6288C88.909 22.7449 90.3074 22.1647 91.4726 21.0042Z" fill="white"/>
<path d="M99.5127 26.2262V7.54296H103.941V10.328C104.873 8.35528 106.854 7.19482 109.534 7.19482C110 7.19482 110.466 7.19482 110.816 7.31087V11.6045C110.233 11.4885 109.65 11.3725 108.951 11.3725C105.922 11.3725 103.941 13.3452 103.941 16.3624V26.2262H99.5127Z" fill="white"/>
<path d="M130.508 11.6045V7.54295V0.348145H134.936V7.54295H139.015V11.6045H134.936V19.9598C134.936 22.0486 135.635 22.7449 137.267 22.7449C137.849 22.7449 138.316 22.7449 138.782 22.6288V26.5744C138.199 26.6904 137.383 26.8065 136.451 26.8065C132.373 26.8065 130.392 24.7177 130.392 20.424V11.6045H130.508Z" fill="white"/>
<path d="M141.112 16.8266C141.112 14.0415 142.161 11.7206 144.142 9.74781C146.123 7.89109 148.57 6.84668 151.367 6.84668C154.163 6.84668 156.61 7.77504 158.591 9.74781C160.572 11.6045 161.621 14.0415 161.621 16.8266C161.621 19.6117 160.572 21.9326 158.591 23.9053C156.61 25.7621 154.163 26.8065 151.367 26.8065C148.57 26.8065 146.123 25.8781 144.142 23.9053C142.045 22.0486 141.112 19.6117 141.112 16.8266ZM155.445 21.0042C156.61 19.8437 157.076 18.4512 157.076 16.8266C157.076 15.2019 156.494 13.8094 155.445 12.6489C154.28 11.4885 152.998 10.9083 151.367 10.9083C149.735 10.9083 148.337 11.4885 147.172 12.6489C146.123 13.8094 145.54 15.0859 145.54 16.8266C145.54 18.4512 146.123 19.8437 147.172 21.0042C148.337 22.1647 149.619 22.6288 151.367 22.6288C152.881 22.7449 154.28 22.1647 155.445 21.0042Z" fill="white"/>
<path d="M163.369 26.2262V7.54296H167.797V10.328C168.729 8.35528 170.71 7.19482 173.39 7.19482C173.856 7.19482 174.322 7.19482 174.672 7.31087V11.6045C174.089 11.4885 173.506 11.3725 172.807 11.3725C169.778 11.3725 167.797 13.3452 167.797 16.3624V26.2262H163.369Z" fill="white"/>
<path d="M176.653 2.66904C176.653 1.16045 177.818 0 179.333 0C180.731 0 182.013 1.16045 182.013 2.66904C182.013 4.17763 180.847 5.33808 179.333 5.33808C177.934 5.33808 176.653 4.17763 176.653 2.66904ZM177.119 26.2262V7.54294H181.547V26.2262H177.119Z" fill="white"/>
<path d="M119.206 14.8538C122.352 14.5057 123.517 14.1575 123.517 12.6489C123.517 11.4885 122.468 10.5601 120.371 10.5601C118.39 10.5601 116.642 11.3724 115.36 12.9971L112.564 10.6762C114.428 8.12318 116.992 6.84668 120.254 6.84668C124.915 6.84668 127.828 9.05154 127.828 12.881V21.1202C127.828 22.3967 127.828 22.5128 127.828 22.5128V25.9941V26.4583H124.333V24.3695C123.051 25.8781 120.953 26.6904 117.924 26.6904C113.845 26.6904 111.049 24.4856 111.049 21.0042C111.049 17.2908 113.612 15.318 119.206 14.8538ZM118.623 22.977C121.653 22.977 123.401 21.5844 123.401 19.2635V17.1747C123.167 17.4068 122.934 17.5228 122.468 17.7549C121.653 18.1031 121.07 18.1031 119.322 18.3352C116.759 18.6833 115.36 19.4956 115.36 20.7721C115.477 22.1647 116.642 22.977 118.623 22.977Z" fill="white"/>
<path d="M191.684 14.8538C194.831 14.5057 195.996 14.1575 195.996 12.6489C195.996 11.4885 194.947 10.5601 192.85 10.5601C190.869 10.5601 189.121 11.3724 187.839 12.9971L185.042 10.6762C186.907 8.12318 189.47 6.84668 192.733 6.84668C197.394 6.84668 200.307 9.05154 200.307 12.881V21.1202C200.307 22.3967 200.307 22.5128 200.307 22.5128V25.9941V26.4583H196.811V24.3695C195.53 25.8781 193.432 26.6904 190.403 26.6904C186.324 26.6904 183.528 24.4856 183.528 21.0042C183.528 17.2908 186.091 15.318 191.684 14.8538ZM191.102 22.977C194.131 22.977 195.879 21.5844 195.879 19.2635V17.1747C195.646 17.4068 195.413 17.5228 194.947 17.7549C194.131 18.1031 193.549 18.1031 191.801 18.3352C189.237 18.6833 187.839 19.4956 187.839 20.7721C187.839 22.1647 189.121 22.977 191.102 22.977Z" fill="white"/>
<path d="M5.01059 16.8265L12.3517 9.3996L9.90466 6.96265L0 16.8265L9.90466 26.6903L12.3517 24.1373L5.01059 16.8265Z" fill="#FFE521"/>
<path d="M214.99 16.8265L207.648 9.3996L210.095 6.96265L220 16.8265L210.095 26.6903L207.648 24.1373L214.99 16.8265Z" fill="#FFE521"/>
</svg>
