<?xml version="1.0" encoding="UTF-8"?>
<svg width="32px" height="32px" viewBox="0 0 32 32" version="1.1" xmlns="http://www.w3.org/2000/svg" xmlns:xlink="http://www.w3.org/1999/xlink">
    <!-- Generator: Sketch 44.1 (41455) - http://www.bohemiancoding.com/sketch -->
    <title>link</title>
    <desc>Created with Sketch.</desc>
    <defs></defs>
    <g id="Page-1" stroke="none" stroke-width="1" fill="none" fill-rule="evenodd">
        <g id="link" fill-rule="nonzero" fill="#000000">
            <path d="M13.757,19.868 C13.341,19.868 12.925,19.709 12.608,19.392 C9.635,16.419 9.635,11.582 12.608,8.609 L18.608,2.609 C20.048,1.169 21.963,0.376 24,0.376 C26.037,0.376 27.951,1.169 29.392,2.609 C32.365,5.582 32.365,10.419 29.392,13.392 L26.649,16.135 C26.014,16.77 24.986,16.77 24.351,16.135 C23.716,15.5 23.716,14.472 24.351,13.837 L27.094,11.094 C28.8,9.388 28.8,6.613 27.094,4.907 C26.268,4.081 25.169,3.626 24,3.626 C22.831,3.626 21.733,4.081 20.906,4.907 L14.906,10.907 C13.2,12.613 13.2,15.388 14.906,17.094 C15.541,17.729 15.541,18.757 14.906,19.392 C14.589,19.709 14.173,19.868 13.757,19.868 L13.757,19.868 Z" id="Shape"></path>
            <path d="M8,31.625 C5.963,31.625 4.048,30.832 2.608,29.392 C-0.365,26.419 -0.365,21.582 2.608,18.609 L5.351,15.866 C5.986,15.231 7.015,15.231 7.649,15.866 C8.283,16.501 8.284,17.529 7.649,18.164 L4.906,20.907 C3.2,22.613 3.2,25.388 4.906,27.094 C5.732,27.92 6.831,28.375 8,28.375 C9.169,28.375 10.267,27.92 11.094,27.094 L17.094,21.094 C18.8,19.388 18.8,16.613 17.094,14.907 C16.459,14.272 16.459,13.244 17.094,12.609 C17.729,11.974 18.757,11.974 19.392,12.609 C22.365,15.582 22.365,20.419 19.392,23.392 L13.392,29.392 C11.952,30.832 10.037,31.625 8,31.625 Z" id="Shape"></path>
        </g>
    </g>
</svg>